# xmcd
#
# Track frame offsets: 
#        150
#        16001
#        32086
#        55956
#        75813
#        97711
#        113262
#        133595
#        146971
#        164112
#        183548
#
# Disc length: 2903 seconds
#
# Revision: 1
# Processed by: cddbd v1.5PL3 Copyright (c) Steve Scherf et al.
# Submitted via: ExactAudioCopy v0.90b4
#
DISCID=820b550b
DTITLE=Houston Marchman - Tryin' For Home
DYEAR=2000
DGENRE=Country
TTITLE0=Wichita Falls
TTITLE1=Tryin' For Home
TTITLE2=One Foot Deeper
TTITLE3=Wrong Side Of Del Rio
TTITLE4=Hank's Angel
TTITLE5=Adios Baby
TTITLE6=Cross Beside The Road
TTITLE7=Plano Texas Girl
TTITLE8=When You Ain't Lookin'
TTITLE9=Still Alone
TTITLE10=Buses In The Rain
EXTD=
EXTT0=
EXTT1=
EXTT2=
EXTT3=
EXTT4=
EXTT5=
EXTT6=
EXTT7=
EXTT8=
EXTT9=
EXTT10=
PLAYORDER=
